<svg width="156" height="156" viewBox="0 0 156 156" fill="none" xmlns="http://www.w3.org/2000/svg">
<path d="M135.635 130.125C148.159 116.292 155.862 98.017 155.862 77.931C155.862 34.959 120.901 0 77.931 0C34.961 0 0 34.959 0 77.931C0 120.903 34.961 155.862 77.931 155.862C98.017 155.862 116.291 148.159 130.125 135.635L150.225 155.735L152.98 152.98L155.735 150.225L135.635 130.125ZM77.931 148.069C39.256 148.069 7.793 116.604 7.793 77.931C7.793 39.258 39.256 7.793 77.931 7.793C116.606 7.793 148.069 39.258 148.069 77.931C148.069 116.604 116.606 148.069 77.931 148.069Z" fill="black"/>
</svg>
